<?xml version="1.0" encoding="UTF-8"?>
<!DOCTYPE svg PUBLIC "-//W3C//DTD SVG 1.1//EN" "http://www.w3.org/Graphics/SVG/1.1/DTD/svg11.dtd">
<!-- Creator: CorelDRAW X8 -->
<svg xmlns="http://www.w3.org/2000/svg" xml:space="preserve" width="13.5466mm" height="13.5466mm" version="1.1" style="shape-rendering:geometricPrecision; text-rendering:geometricPrecision; image-rendering:optimizeQuality; fill-rule:evenodd; clip-rule:evenodd"
viewBox="0 0 2415 2415"
 xmlns:xlink="http://www.w3.org/1999/xlink">
 <defs>
  <style type="text/css">
   <![CDATA[
    .fil1 {fill:white;fill-rule:nonzero}
    .fil0 {fill:url(#id0)}
   ]]>
  </style>
  <linearGradient id="id0" gradientUnits="userSpaceOnUse" x1="122.686" y1="1737.57" x2="2291.92" y2="677.045">
   <stop offset="0" style="stop-opacity:1; stop-color:#E6274B"/>
   <stop offset="1" style="stop-opacity:1; stop-color:#F28948"/>
  </linearGradient>
 </defs>
 <g id="Слой_x0020_1">
  <metadata id="CorelCorpID_0Corel-Layer"/>
  <g id="_2237017313456">
   <circle class="fil0" cx="1207" cy="1207" r="1207"/>
   <path class="fil1" d="M1793 869c-187,-323 -600,-434 -924,-247 -323,186 -434,600 -247,923 125,217 352,338 586,338l2 0c114,0 230,-29 335,-90 212,-122 333,-342 338,-569l0 -35c-2,-109 -32,-219 -90,-320zm-315 807c-259,149 -590,60 -739,-198 -149,-259 -61,-590 198,-739 259,-149 590,-61 739,198 149,258 60,589 -198,739zm-27 -496l-354 -207c-32,-19 -59,-3 -58,34l1 410c1,37 27,52 59,34l352 -203c32,-19 32,-49 0,-68z"/>
  </g>
 </g>
</svg>
