<?xml version="1.0" encoding="UTF-8"?>
<!DOCTYPE svg PUBLIC "-//W3C//DTD SVG 1.1//EN" "http://www.w3.org/Graphics/SVG/1.1/DTD/svg11.dtd">
<!-- Creator: CorelDRAW X8 -->
<svg xmlns="http://www.w3.org/2000/svg" xml:space="preserve" width="13.5466mm" height="13.5466mm" version="1.1" style="shape-rendering:geometricPrecision; text-rendering:geometricPrecision; image-rendering:optimizeQuality; fill-rule:evenodd; clip-rule:evenodd"
viewBox="0 0 465 465"
 xmlns:xlink="http://www.w3.org/1999/xlink">
 <defs>
  <style type="text/css">
   <![CDATA[
    .fil1 {fill:white}
    .fil0 {fill:url(#id0)}
   ]]>
  </style>
  <linearGradient id="id0" gradientUnits="userSpaceOnUse" x1="-0" y1="232.553" x2="465.106" y2="232.553">
   <stop offset="0" style="stop-opacity:1; stop-color:#215AA5"/>
   <stop offset="1" style="stop-opacity:1; stop-color:#0384CB"/>
  </linearGradient>
 </defs>
 <g id="Слой_x0020_1">
  <metadata id="CorelCorpID_0Corel-Layer"/>
  <circle class="fil0" cx="233" cy="233" r="233"/>
  <g id="_2236590215792">
   <path class="fil1" d="M292 215c31,-3 56,22 58,51 1,32 -22,56 -52,58 -22,1 -42,-11 -52,-30 -7,-14 -8,-31 -2,-45 2,-4 3,-6 5,-9 3,-6 8,-11 13,-15 8,-6 18,-10 30,-10zm-99 78c0,-7 0,-14 0,-21 0,-24 -2,-26 15,-26 7,0 14,0 21,0 0,2 -4,10 -4,23 0,5 0,9 1,13 1,5 2,8 3,11l-36 0zm-15 0c-5,0 -10,0 -14,0 -7,0 -18,1 -18,-10l0 -151c0,-11 6,-12 16,-12 0,4 0,12 0,16 0,16 -2,28 8,39 7,8 14,8 23,8l63 0c5,0 9,0 14,-2 7,-3 12,-9 15,-16 2,-4 2,-9 2,-14 0,-4 0,-29 0,-31 2,0 2,0 3,1l12 13c5,5 10,9 15,14 2,2 2,1 2,5l0 22c0,6 0,22 -1,28 -3,-1 -5,-2 -11,-3 -13,-3 -27,-1 -38,4 -13,5 -21,12 -29,22 -1,1 -3,3 -3,4 -5,0 -11,0 -16,0 -5,0 -10,0 -15,0 -5,0 -9,0 -14,2 -4,1 -6,3 -8,6 -7,6 -7,15 -6,24 0,10 -1,21 0,31zm93 -173c1,3 0,20 1,24 0,9 1,24 -13,23 -23,0 -47,0 -70,0 -4,0 -6,-1 -8,-3 -4,-5 -3,-13 -3,-20 -1,-4 0,-8 0,-12 0,-2 -1,-10 0,-12l47 0 0 32 31 0 0 -32 15 0zm19 220l10 0c1,-1 10,-2 14,-3 4,-1 8,-3 12,-4 8,-4 14,-9 19,-14l4 -4c4,-5 7,-10 10,-16 7,-15 6,-23 7,-26l0 -9c-1,-1 -1,-7 -2,-9 -3,-16 -12,-29 -24,-40 -1,-1 -2,-1 -3,-2 -1,-1 -2,-2 -3,-2 0,-7 0,-13 0,-20l0 -38c0,-2 1,-8 0,-10l-24 -24c-2,-1 -14,-14 -15,-14 -2,-1 -7,0 -10,0l-116 0c-12,0 -22,-2 -31,7 -8,8 -8,17 -7,31l0 117c0,6 -1,13 0,19 0,7 0,11 2,16 3,5 6,7 10,10 5,3 10,3 16,3 13,0 26,0 39,0 6,0 13,0 19,0 6,0 13,0 19,0 1,1 11,19 37,28 7,3 17,3 17,4z"/>
   <path class="fil1" d="M320 264c1,-1 9,-8 10,-10 -2,-1 -10,-10 -12,-10 -2,2 -4,4 -7,7l-21 21c-1,0 -17,-16 -18,-17 -1,0 -7,6 -9,8 -1,1 -1,1 -2,2 0,1 12,13 14,15l15 14 30 -30z"/>
  </g>
 </g>
</svg>
